<?xml version="1.0" encoding="UTF-8" standalone="no"?>
<!-- Created with Inkscape (http://www.inkscape.org/) -->

<svg
   version="1.1"
   id="svg2"
   width="4138.6665"
   height="1333.3333"
   viewBox="0 0 4138.6665 1333.3333"
   sodipodi:docname="en-primary-vertical.eps"
   xmlns:inkscape="http://www.inkscape.org/namespaces/inkscape"
   xmlns:sodipodi="http://sodipodi.sourceforge.net/DTD/sodipodi-0.dtd"
   xmlns="http://www.w3.org/2000/svg"
   xmlns:svg="http://www.w3.org/2000/svg">
  <defs
     id="defs6" />
  <sodipodi:namedview
     id="namedview4"
     pagecolor="#ffffff"
     bordercolor="#000000"
     borderopacity="0.25"
     inkscape:showpageshadow="2"
     inkscape:pageopacity="0.0"
     inkscape:pagecheckerboard="0"
     inkscape:deskcolor="#d1d1d1" />
  <g
     id="g8"
     inkscape:groupmode="layer"
     inkscape:label="ink_ext_XXXXXX"
     transform="matrix(1.3333333,0,0,-1.3333333,0,1333.3333)">
    <g
       id="g10"
       transform="scale(0.1)">
      <path
         d="m 28343.3,4295.98 c 174,0 306,-117 336,-303 h -687 c 39,192 165,303 351,303 z m 741,-435 c 0,441 -303,762 -735,762 -450,0 -765,-318 -765,-771 0,-462 315,-765 777,-765 396,0 651,240 696,495 h -399 c -33,-102 -126,-165 -303,-165 -177,0 -324,93 -363,312 h 1086 c 6,48 6,84 6,132 z m -2373,762 c 336,0 570,-210 570,-573 v -924 h -393 v 804 c 0,216 -111,324 -288,324 -183,0 -312,-117 -312,-339 v -789 h -393 v 804 c 0,216 -108,324 -285,324 -186,0 -312,-117 -312,-339 v -789 h -393 v 1458 h 378 v -180 c 93,135 252,219 453,219 210,0 378,-84 471,-243 99,144 270,243 504,243 z m -2430,-1524 c -150,0 -276,123 -276,276 0,150 126,273 276,273 153,0 279,-123 279,-273 0,-153 -126,-276 -279,-276 z m -1314,354 c -222,0 -381,168 -381,402 0,234 159,402 381,402 222,0 381,-168 381,-402 0,-234 -159,-402 -381,-402 z m 75,1170 c -183,0 -339,-69 -447,-198 v 159 h -378 v -2058 h 393 v 741 c 108,-117 258,-180 432,-180 402,0 705,336 705,768 0,432 -303,768 -705,768 z m -1935,-1170 c -228,0 -387,165 -387,402 0,234 159,402 387,402 225,0 387,-168 387,-402 0,-237 -162,-402 -387,-402 z m 0,1170 c -453,0 -792,-327 -792,-768 0,-441 339,-768 792,-768 453,0 789,327 789,768 0,441 -336,768 -789,768 z m -1803,-1170 c -222,0 -381,168 -381,402 0,234 159,402 381,402 222,0 381,-168 381,-402 0,-234 -159,-402 -381,-402 z m 75,1170 c -183,0 -339,-69 -447,-198 v 159 h -378 v -2058 h 393 v 741 c 108,-117 258,-180 432,-180 402,0 705,336 705,768 0,432 -303,768 -705,768 z m -1434,-1173 c 90,0 195,18 276,48 v -342 c -87,-36 -231,-63 -381,-63 -360,0 -549,168 -549,540 v 603 h -294 v 348 h 294 v 429 h 393 v -429 h 528 v -348 h -528 v -534 c 0,-192 75,-252 261,-252 z m -1749,1173 c 318,0 552,-210 552,-570 v -927 h -393 v 804 c 0,216 -108,324 -285,324 -186,0 -312,-117 -312,-339 v -789 h -393 v 1458 h 378 v -180 c 93,135 252,219 453,219 z m -1893,-327 c 174,0 306,-117 336,-303 h -687 c 39,192 165,303 351,303 z m 741,-435 c 0,441 -303,762 -735,762 -450,0 -765,-318 -765,-771 0,-462 315,-765 777,-765 396,0 651,240 696,495 h -399 c -33,-102 -126,-165 -303,-165 -177,0 -324,93 -363,312 h 1086 c 6,48 6,84 6,132 z m -2067,723 h 426 l -603,-1458 h -408 l -603,1458 h 429 l 381,-1017 378,1017 z m -2073,-288 c 174,0 306,-117 336,-303 h -687 c 39,192 165,303 351,303 z m 741,-435 c 0,441 -303,762 -735,762 -450,0 -765,-318 -765,-771 0,-462 315,-765 777,-765 396,0 651,240 696,495 h -399 c -33,-102 -126,-165 -303,-165 -177,0 -324,93 -363,312 h 1086 c 6,48 6,84 6,132 v 0"
         style="fill:#2a286c;fill-opacity:1;fill-rule:nonzero;stroke:none"
         id="path12" />
      <path
         d="M 11287.4,7104.34 V 6913.3 h -467.7 V 5711.34 h -203 V 6913.3 h -467.6 v 191.04 h 1138.3 z m 210.9,-1393 h 191 v 955.2 h -191 v -955.2 z m -31.8,1281.56 c 0,-73.63 53.7,-127.36 127.3,-127.36 73.6,0 127.4,53.73 127.4,127.36 0,73.63 -53.8,127.36 -127.4,127.36 -73.6,0 -127.3,-53.73 -127.3,-127.36 z m 489.5,-803.96 c 0,286.56 210.9,501.48 509.4,501.48 278.6,0 441.8,-179.1 471.7,-360.19 H 12746 c -33.8,97.51 -121.4,185.07 -280.6,185.07 -191,0 -314.4,-135.32 -314.4,-326.36 0,-191.04 123.4,-326.36 314.4,-326.36 159.2,0 248.8,87.56 282.6,189.05 h 191.1 c -29.9,-185.07 -195.1,-364.17 -473.7,-364.17 -298.5,0 -509.4,214.92 -509.4,501.48 z m 1904.4,-477.6 -326.3,390.04 h -141.3 v -390.04 h -191.1 v 1432.8 h 191.1 V 6276.5 h 129.3 l 326.4,390.04 h 232.8 l -402,-469.64 414,-485.56 h -232.9 z m 847.8,809.93 c 151.2,0 264.6,-101.49 282.5,-256.71 h -575.1 c 27.9,171.14 151.3,256.71 292.6,256.71 z m 475.6,-320.39 c 0,278.6 -195,489.54 -471.6,489.54 -280.6,0 -495.6,-206.96 -495.6,-501.48 0,-298.5 211,-501.48 505.5,-501.48 252.7,0 409.9,131.34 443.8,304.47 h -187.1 c -23.9,-75.62 -101.5,-135.32 -256.7,-135.32 -129.4,0 -276.6,67.66 -306.5,256.71 h 764.2 c 4,39.8 4,57.71 4,87.56 z m 746.2,-334.32 c -127.3,0 -197,39.8 -197,199 v 429.84 h 354.2 v 171.14 H 15733 v 286.56 h -191 v -286.56 h -207 V 6495.4 h 207 v -457.7 c 0,-238.8 117.4,-346.26 348.2,-346.26 71.7,0 153.3,13.93 205,35.82 v 167.16 c -51.7,-19.9 -117.4,-27.86 -165.2,-27.86 z m 766.2,-13.93 c -155.2,0 -222.9,49.75 -238.8,131.34 h -183.1 c 15.9,-161.19 139.3,-296.51 415.9,-296.51 244.8,0 404,95.52 404,296.51 0,193.03 -127.4,250.74 -312.5,278.6 l -105.4,15.92 c -117.4,17.91 -191.1,35.82 -191.1,129.35 0,79.6 75.7,117.41 199,117.41 127.4,0 191.1,-49.75 205,-123.38 h 183.1 c -21.9,157.21 -137.3,288.55 -394,288.55 -226.9,0 -382.1,-107.46 -382.1,-288.55 0,-177.11 119.4,-248.75 310.4,-278.6 l 105.5,-15.92 c 135.3,-19.9 193,-43.78 193,-131.34 0,-85.57 -81.6,-123.38 -208.9,-123.38 z m 1613.9,9.95 c 181.1,0 308.4,135.32 308.4,326.36 0,191.04 -127.3,326.36 -308.4,326.36 -181.1,0 -308.5,-135.32 -308.5,-326.36 0,-191.04 127.4,-326.36 308.5,-326.36 z m 296.5,803.96 h 187 v -955.2 h -187 v 111.44 c -79.6,-87.56 -191.1,-135.32 -316.4,-135.32 -284.6,0 -483.6,214.92 -483.6,501.48 0,286.56 199,501.48 483.6,501.48 125.3,0 236.8,-47.76 316.4,-135.32 v 111.44 z m 1188,0 -298.5,-734.31 -300.5,734.31 h -210.9 l 411.9,-955.2 h 195 l 412,955.2 h -209 z m 835.8,-803.96 c 181.1,0 308.5,135.32 308.5,326.36 0,191.04 -127.4,326.36 -308.5,326.36 -181.1,0 -308.4,-135.32 -308.4,-326.36 0,-191.04 127.3,-326.36 308.4,-326.36 z m 296.5,803.96 h 187.1 v -955.2 h -187.1 v 111.44 c -79.6,-87.56 -191,-135.32 -316.4,-135.32 -284.6,0 -483.6,214.92 -483.6,501.48 0,286.56 199,501.48 483.6,501.48 125.4,0 236.8,-47.76 316.4,-135.32 v 111.44 z m 521.4,-955.2 v 955.2 h 191 v -955.2 h -191 z m -31.8,1281.56 c 0,73.63 53.7,127.36 127.3,127.36 73.7,0 127.4,-53.73 127.4,-127.36 0,-73.63 -53.7,-127.36 -127.4,-127.36 -73.6,0 -127.3,53.73 -127.3,127.36 z m 557.2,151.24 h 191 v -1432.8 h -191 z m 961.1,-1281.56 c 181.1,0 308.5,135.32 308.5,326.36 0,191.04 -127.4,326.36 -308.5,326.36 -181.1,0 -308.4,-135.32 -308.4,-326.36 0,-191.04 127.3,-326.36 308.4,-326.36 z m 296.5,803.96 h 187.1 v -955.2 h -187.1 v 111.44 c -79.6,-87.56 -191,-135.32 -316.4,-135.32 -284.5,0 -483.5,214.92 -483.5,501.48 0,286.56 199,501.48 483.5,501.48 125.4,0 236.8,-47.76 316.4,-135.32 v 111.44 z m 1005,-803.96 c 181.1,0 308.4,135.32 308.4,326.36 0,191.04 -127.3,326.36 -308.4,326.36 -181.1,0 -308.5,-135.32 -308.5,-326.36 0,-191.04 127.4,-326.36 308.5,-326.36 z m 19.9,827.84 c 284.6,0 483.6,-214.92 483.6,-501.48 0,-286.56 -199,-501.48 -483.6,-501.48 -125.4,0 -236.8,47.76 -316.4,135.32 v -111.44 h -187.1 v 1432.8 h 191.1 v -585.06 c 79.6,83.58 189,131.34 312.4,131.34 z m 750.2,-979.08 h 191.1 v 1432.8 h -191.1 z m 949.2,809.93 c -141.2,0 -264.6,-85.57 -292.5,-256.71 h 575.1 c -17.9,155.22 -131.3,256.71 -282.6,256.71 z m 475.7,-320.39 c 0,-29.85 0,-47.76 -4,-87.56 h -764.2 c 29.9,-189.05 177.1,-256.71 306.5,-256.71 155.2,0 232.8,59.7 256.7,135.32 h 187 c -33.8,-173.13 -191,-304.47 -443.7,-304.47 -294.5,0 -505.5,202.98 -505.5,501.48 0,294.52 214.9,501.48 495.5,501.48 276.6,0 471.7,-210.94 471.7,-489.54 z m 1219.8,-338.3 c 181.1,0 308.5,135.32 308.5,326.36 0,191.04 -127.4,326.36 -308.5,326.36 -181.1,0 -308.4,-135.32 -308.4,-326.36 0,-191.04 127.3,-326.36 308.4,-326.36 z m 296.5,803.96 h 187.1 v -955.2 h -187.1 v 111.44 c -79.6,-87.56 -191,-135.32 -316.4,-135.32 -284.5,0 -483.5,214.92 -483.5,501.48 0,286.56 199,501.48 483.5,501.48 125.4,0 236.8,-47.76 316.4,-135.32 v 111.44 z m 1001,-799.98 c 47.8,0 113.4,7.96 165.2,27.86 v -167.16 c -51.8,-21.89 -133.4,-35.82 -205,-35.82 -230.8,0 -348.2,107.46 -348.2,346.26 v 457.7 h -207 v 171.14 h 207 v 286.56 h 191 v -286.56 h 354.2 V 6495.4 h -354.2 v -429.84 c 0,-159.2 69.6,-199 197,-199 v 0"
         style="fill:#2a286c;fill-opacity:1;fill-rule:nonzero;stroke:none"
         id="path14" />
      <path
         d="m 5307.26,4044.08 c -147.35,-39.37 -228.58,-150.3 -263.33,-305.71 l -43.23,-193.33 c -38.43,-187.52 -204.1,-315.9 -395.11,-315.07 -191.46,0.85 -261.6,144.05 -224.89,342.15 l 146.23,659.6 c 0,0 711.14,33.83 1378.75,224.65 1104.98,315.81 1610.11,745.91 1850.05,1136.37 351.95,572.83 352.34,1248.9 -94.43,1741.23 -431.1,475.04 -1125.07,783.67 -1947.84,787.34 -1756,7.72 -3439,-1391.78 -3759.15,-3115.93 -320.14,-1724.13 843.76,-3136.22 2599.72,-3144.01 1547.23,-6.8 3037.3,1080.93 3588.7,2517.16 77.72,202.44 -100.53,411.21 -302.06,357.63 0,0 -1634.61,-452.03 -2533.41,-692.08 v 0 z m -262.22,2522.6 c 35.07,168.06 201.94,303.39 373.17,302.63 171.6,-0.76 286.58,-136.26 251.92,-304.72 L 5321.85,4987.84 c -30.81,-149.87 -147.31,-263.73 -291.88,-285.28 l -411.49,-57.85 426.56,1921.97 v 0"
         style="fill:#2a286c;fill-opacity:1;fill-rule:evenodd;stroke:none"
         id="path16" />
    </g>
  </g>
</svg>
