<svg fill="none" height="128" viewBox="0 0 128 128" width="128" xmlns="http://www.w3.org/2000/svg"><path d="m0 0h128v128h-128z" fill="#fff"/><path d="m72.2962 35.2222 20.4815 20.4814-37.074 37.0741-20.4815-20.4815zm-13.6759 63.4537 40.0556-40.0556c.821-.821 1.2315-1.7932 1.2315-2.9167 0-1.1234-.4105-2.0956-1.2315-2.9166l-23.463-23.463c-.7778-.7778-1.75-1.1667-2.9167-1.1667-1.1666 0-2.1388.3889-2.9166 1.1667l-40.0556 40.0556c-.821.821-1.2315 1.7932-1.2315 2.9166 0 1.1235.4105 2.0957 1.2315 2.9167l23.463 23.463c.7778.7777 1.75 1.1666 2.9167 1.1666 1.1666 0 2.1388-.3889 2.9166-1.1666zm57.6207-41.2871-58.7873 58.8522c-1.5988 1.598-3.5541 2.398-5.8658 2.398s-4.267-.8-5.8657-2.398l-8.1667-8.167c2.4198-2.42 3.6296-5.358 3.6296-8.8148s-1.2098-6.3951-3.6296-8.8148c-2.4197-2.4198-5.358-3.6296-8.8148-3.6296s-6.3951 1.2098-8.8148 3.6296l-8.1019-8.1667c-1.5987-1.5987-2.39813-3.554-2.39813-5.8657 0-2.3118.79943-4.267 2.39813-5.8658l58.7871-58.7222c1.5987-1.5988 3.554-2.39814 5.8657-2.39814s4.267.79934 5.8657 2.39814l8.1019 8.1019c-2.4198 2.4197-3.6296 5.358-3.6296 8.8148s1.2098 6.395 3.6296 8.8148c2.4198 2.4197 5.358 3.6296 8.8148 3.6296s6.3948-1.2099 8.8148-3.6296l8.167 8.1018c1.598 1.5988 2.398 3.5541 2.398 5.8658s-.8 4.267-2.398 5.8657z" fill="#260176"/></svg>