<svg fill="none" height="128" viewBox="0 0 128 128" width="128" xmlns="http://www.w3.org/2000/svg"><path d="m0 0h128v128h-128z" fill="#fff"/><path d="m74.375 62.625c6.0833-4.5 10.8333-9.4367 14.25-14.81s5.125-10.7283 5.125-16.065c0-2.6667-.4367-4.625-1.31-5.875s-2.0617-1.875-3.565-1.875c-3.9167 0-7.375 3.3133-10.375 9.94s-4.5 14.105-4.5 22.435c0 1.1667.0217 2.2717.065 3.315s.1467 2.0217.31 2.935zm-55.375 46.375v-10h10v10zm20 0v-10h10v10zm20 0v-10h10v10zm20 0v-10h10v10zm20 0v-10h10v10zm-78-20-7-7 8-8-8-8 7-7 8 8 8-8 7 7-8 8 8 8-7 7-8-8zm60.25-5c-2.5 0-4.7917-.48-6.875-1.44s-3.875-2.52-5.375-4.68c-2.0833 1.1667-4.2283 2.2083-6.435 3.125s-4.4783 1.8333-6.815 2.75l-3.5-9.375c2.3333-.8333 4.5633-1.7283 6.69-2.685s4.1883-1.9783 6.185-3.065c-.4167-1.8333-.7283-3.8333-.935-6s-.3117-4.5-.315-7c0-12 2.375-21.9367 7.125-29.81s10.7083-11.8133 17.875-11.82c4.3333 0 7.875 1.605 10.625 4.815s4.125 7.6883 4.125 13.435c0 7.1667-2.27 14.25-6.81 21.25s-10.8533 13.2917-18.94 18.875c.5833.5833 1.1883 1.0217 1.815 1.315s1.2717.4383 1.935.435c2.1667 0 4.6883-1.375 7.565-4.125s5.48-6.375 7.81-10.875l9.125 4.25c-.583 1.4167-1.042 3.125-1.375 5.125s-.292 3.75.125 5.25c.833-.4167 1.813-1.125 2.94-2.125s2.272-2.25 3.435-3.75l7.875 6.125c-2.167 3-4.667 5.4167-7.5 7.25s-5.458 2.75-7.875 2.75c-1.75 0-3.312-.52-4.685-1.56-1.3733-1.04-2.52-2.645-3.44-4.815-2.3333 2.0833-4.7083 3.6667-7.125 4.75s-4.8333 1.625-7.25 1.625z" fill="#000"/></svg>