<svg fill="none" height="128" viewBox="0 0 128 128" width="128" xmlns="http://www.w3.org/2000/svg"><path d="m0 0h128v128h-128z" fill="#fff"/><path d="m59.3333 101.333h-21c-7.0778 0-13.1242-2.4497-18.1393-7.3497s-7.5242-10.8889-7.5273-17.9666c0-6.0667 1.8277-11.4722 5.4833-16.2167 3.6555-4.7444 8.4389-7.7778 14.35-9.1 1.9444-7.1556 5.8333-12.95 11.6667-17.3833 5.8333-4.4334 12.4444-6.65 19.8333-6.65 9.1 0 16.8202 3.1702 23.1607 9.5106 6.3404 6.3405 9.5091 14.0591 9.506 23.156 5.3663.6223 9.8203 2.9369 13.3603 6.944 3.541 4.0071 5.309 8.6925 5.306 14.056 0 5.8334-2.041 10.7925-6.122 14.8774-4.082 4.0849-9.041 6.1253-14.8777 6.1223h-25.6666v-33.3663l7.4666 7.2333 6.5334-6.5333-18.6667-18.6667-18.6667 18.6667 6.5334 6.5333 7.4666-7.2333z" fill="#000"/></svg>