<svg fill="none" height="128" viewBox="0 0 128 128" width="128" xmlns="http://www.w3.org/2000/svg" xmlns:xlink="http://www.w3.org/1999/xlink"><clipPath id="a"><path d="m0 0h128v128h-128z"/></clipPath><g clip-path="url(#a)"><path d="m0 0h128v128h-128z" fill="#fff"/><path clip-rule="evenodd" d="m18.1784 8.53334c-5.3248 0-9.64506 4.31406-9.64506 9.64506v91.6426c0 5.325 4.31406 9.646 9.64506 9.646h91.6426c5.325 0 9.646-4.314 9.646-9.646v-91.6426c0-5.3248-4.314-9.64506-9.646-9.64506zm91.2056 25.20656h-90.7681v75.6441h90.7681zm-14.0329-10.7359c.023.6478-.0845 1.2936-.3166 1.8989-.2317.6053-.5833 1.1577-1.0334 1.6242-.4502.4665-.9895.8375-1.5864 1.0909-.5964.2534-1.2382.384-1.8863.384s-1.2898-.1306-1.8863-.384c-.5969-.2534-1.1362-.6244-1.5863-1.0909s-.8017-1.0189-1.0334-1.6242c-.2321-.6053-.3396-1.2511-.3166-1.8989.0448-1.2492.5726-2.4323 1.472-3.3002.8994-.868 2.1005-1.353 3.3506-1.353 1.2502 0 2.4512.485 3.3506 1.353.8999.8679 1.4273 2.051 1.4721 3.3002zm-62.7021 4.8194c.6478.0232 1.2937-.0844 1.899-.3163.6053-.232 1.1577-.5834 1.6241-1.0336.4665-.4501.8375-.9895 1.0909-1.5862.2534-.5966.384-1.2382.384-1.8864s-.1306-1.2898-.384-1.8864c-.2534-.5967-.6244-1.1362-1.0909-1.5863-.4664-.45-1.0188-.8015-1.6241-1.0335-.6053-.2319-1.2512-.3395-1.899-.3163-1.2491.0446-2.4323.5723-3.3002 1.4718s-1.353 2.1007-1.353 3.3507.4851 2.4512 1.353 3.3507 2.0511 1.4271 3.3002 1.4718zm6.5327 45.1127c-.2237-.2236-.4013-.4894-.5224-.7816-.1211-.2923-.1835-.6059-.1835-.9221 0-.3165.0624-.6301.1835-.9224s.2987-.5581.5224-.7817l3.4082-3.4082c.2236-.224.4894-.4015.7816-.5226.2927-.1212.6059-.1835.9225-.1835s.6297.0623.922.1835c.2927.1211.5581.2986.7821.5226l12.1655 12.1596 26.6304-26.6304c.2236-.2236.4894-.4011.7817-.5223.2923-.1211.6059-.1834.922-.1834.3166 0 .6302.0623.9225.1834.2922.1212.5581.2987.7816.5223l3.4146 3.4082c.943.9429.943 2.4713 0 3.4142l-31.7333 31.721c-.2236.2235-.4894.4014-.7816.5222-.2927.1212-.6059.1835-.9225.1835s-.6298-.0623-.922-.1835c-.2927-.1208-.5581-.2987-.7821-.5222z" fill="#4f46e5" fill-rule="evenodd"/></g></svg>