<svg fill="none" height="128" viewBox="0 0 128 128" width="128" xmlns="http://www.w3.org/2000/svg"><path d="m0 0h128v128h-128z" fill="#fff"/><g clip-rule="evenodd" fill-rule="evenodd"><path d="m116.283 13.3778h-16.6854c-7.699 0-13.9495 6.2504-13.9495 13.9494v13.9003h16.8169c7.626 0 13.818-6.1919 13.818-13.8183z" fill="#2cb0af"/><path d="m46.9703 13.3778h16.685c7.699 0 13.9495 6.2504 13.9495 13.9494v13.9003h-16.8164c-7.6266 0-13.8181-6.1919-13.8181-13.8183z" fill="#2cb0af"/><path d="m8.28892 49.2711h16.68498c7.6991 0 13.9495 6.2505 13.9495 13.9494v13.9003h-16.8164c-7.6265 0-13.81808-6.1918-13.81808-13.8182z" fill="#f9ae41"/><path d="m8.28892 85.1673h16.68498c7.6991 0 13.9495 6.2504 13.9495 13.9494v13.9003h-16.8164c-7.6265 0-13.81808-6.192-13.81808-13.8182z" fill="#f9ae41"/><path d="m46.9703 49.2711h16.685c7.699 0 13.9495 6.2505 13.9495 13.9494v13.9003h-16.8164c-7.6266 0-13.8181-6.1918-13.8181-13.8182z" fill="#d2d2d2"/><path d="m116.283 49.2711h-16.6854c-7.699 0-13.9495 6.2505-13.9495 13.9494v13.9003h16.8169c7.626 0 13.818-6.1918 13.818-13.8182z" fill="#d2d2d2"/><path d="m46.9703 85.1673h16.685c7.699 0 13.9495 6.2504 13.9495 13.9494v13.9003h-16.8164c-7.6266 0-13.8181-6.192-13.8181-13.8182z" fill="#d2d2d2"/><path d="m116.283 85.1673h-16.6854c-7.699 0-13.9495 6.2504-13.9495 13.9494v13.9003h16.8169c7.626 0 13.818-6.192 13.818-13.8182z" fill="#d2d2d2"/></g></svg>