<svg fill="none" height="128" viewBox="0 0 128 128" width="128" xmlns="http://www.w3.org/2000/svg" xmlns:xlink="http://www.w3.org/1999/xlink"><clipPath id="a"><path d="m0 0h128v128h-128z"/></clipPath><g clip-path="url(#a)"><path d="m0 0h128v128h-128z" fill="#fff"/><path d="m77 110.4v2.829c0 4.004-3.2459 7.25-7.25 7.25-1.2451 0-2.4692-.321-3.5544-.931l-43.5-24.4692c-2.2829-1.2841-3.6956-3.6997-3.6956-6.3189v-49.5198c0-2.6192 1.4127-5.0348 3.6956-6.3189l43.5-24.46873c3.4899-1.96303 7.9103-.72531 9.8733 2.76453.6104 1.0852.9311 2.3093.9311 3.5544v2.8286l5.1667-1.55c3.8352-1.1506 7.877 1.0258 9.0275 4.861.2028.6758.3058 1.3776.3058 2.0832v2.9433l6.3507-.7938c3.9733-.4967 7.5963 2.3216 8.0933 6.2947.037.2983.056.5987.056.8993v63.3246c0 4.0041-3.246 7.2497-7.25 7.2497-.3006 0-.601-.018-.8993-.056l-6.3507-.793v2.943c0 4.004-3.2459 7.25-7.25 7.25-.7056 0-1.4074-.103-2.0833-.306zm0-7.569 7.25 2.175v-82.0118l-7.25 2.175zm14.5-69.5871v61.5122l7.25.9062v-63.3246zm-65.25 5.9962v49.5198l43.5 24.4691v-98.4576zm7.25 4.8224 7.25-3.625v47.125l-7.25-3.625z" fill="#000"/></g></svg>